<svg width="1292" height="2005" viewBox="0 0 1292 2005" fill="none" xmlns="http://www.w3.org/2000/svg">
<path d="M645.808 5C999.717 5 1286.62 291.9 1286.62 645.808V1358.97C1286.62 1712.87 999.717 1999.77 645.808 1999.77C291.9 1999.77 5 1712.87 5 1358.97V645.808C5 291.9 291.9 5 645.808 5Z" stroke="#AE8F45" stroke-width="10"/>
<path d="M645.81 56.6777C971.177 56.6777 1234.94 320.44 1234.94 645.808V1358.97C1234.94 1684.33 971.177 1948.1 645.81 1948.1C320.442 1948.1 56.6797 1684.33 56.6797 1358.97V645.808C56.6797 320.44 320.442 56.6777 645.81 56.6777Z" stroke="#AE8F45" stroke-width="10"/>
<path fill-rule="evenodd" clip-rule="evenodd" d="M228.555 571.659V578.613C228.555 578.613 246.881 578.372 257.241 582.96C264.819 586.316 269.367 588.725 274.626 595.13C278.962 600.41 280.242 604.311 282.45 610.777C285.335 619.228 285.927 633.378 285.927 633.378L285.058 1114.09C285.058 1114.09 283.852 1126.23 280.711 1133.21C277.231 1140.95 274.287 1145.28 267.672 1150.6C261.518 1155.54 256.989 1157.05 249.417 1159.29C241.544 1161.62 228.555 1161.9 228.555 1161.9V1168.85L411.103 1167.98V1161.9C411.103 1161.9 397.034 1161.77 388.502 1159.29C380.19 1156.88 375.079 1155.36 368.508 1149.73C362.217 1144.33 359.631 1139.95 356.338 1132.34C352.9 1124.4 351.992 1110.61 351.992 1110.61V582.96H358.077H464.998C479.401 585.234 487.704 586.086 501.508 590.783C513.157 594.748 519.638 597.498 530.194 603.822C537.709 608.325 548.449 616.862 548.449 616.862C548.449 616.862 562.958 630.14 570.181 640.332C576.243 648.887 579.116 654.154 583.22 663.803C588.056 675.174 589.922 682.032 591.913 694.227C593.502 703.967 593.651 719.436 593.651 719.436C593.651 719.436 592.42 741.406 589.305 755.077C586.609 766.905 584.718 773.568 579.743 784.632C575.753 793.503 573.114 798.369 567.573 806.364C560.587 816.443 555.898 821.712 546.71 829.835C541.267 834.647 538.017 837.166 531.933 841.135C523.921 846.362 510.201 852.436 510.201 852.436C510.201 852.436 496.603 857.336 487.599 859.39C478.893 861.377 473.86 861.768 464.998 862.867C430.634 867.13 376.332 863.736 376.332 863.736V874.168C376.332 874.168 400.396 873.219 415.449 875.906C426.558 877.89 443.266 883.73 443.266 883.73C443.266 883.73 459.826 892.274 469.345 899.377C479.356 906.847 484.391 911.885 492.815 921.109C501.469 930.584 505.145 936.893 512.808 947.187C542.944 987.668 584.089 1054.98 584.089 1054.98L735.343 1291.42L949.186 917.632V1373.13C949.186 1373.13 947.249 1386.26 943.97 1394C942.013 1398.61 940.862 1401.26 937.885 1405.3C934.749 1409.55 932.529 1411.66 928.323 1414.86C924.567 1417.71 922.214 1419.06 917.892 1420.94C909.961 1424.41 896.16 1425.29 896.16 1425.29V1433.11H1063.06V1425.29C1063.06 1425.29 1050.87 1424.19 1043.94 1420.94C1036.49 1417.46 1032.34 1414.49 1027.42 1407.9C1023.6 1402.79 1022.47 1399.18 1020.47 1393.13C1017.87 1385.29 1016.99 1372.26 1016.99 1372.26V919.37C1016.99 919.37 1017.68 909.095 1019.6 902.854C1021.83 895.599 1023.32 891.208 1028.29 885.468C1033.4 879.559 1037.48 876.896 1044.81 874.168C1049.98 872.239 1058.71 871.56 1058.71 871.56V864.606L963.963 863.736L774.461 1196.67L764.899 1213.19L762.291 1214.06L620.599 994.128C620.599 994.128 595.192 949.777 573.658 925.455C568.404 919.521 565.587 916.037 559.749 910.677C551.347 902.963 546.101 899.092 536.279 893.292C528.173 888.505 523.301 886.323 514.547 882.861C503.359 878.435 484.992 874.168 484.992 874.168C484.992 874.168 520.655 869.299 542.364 861.998C558.504 856.57 567.59 853.102 582.351 844.612C594.597 837.569 601.405 833.201 611.906 823.75C618.867 817.485 622.529 813.642 628.422 806.364C633.638 799.923 636.401 796.128 640.592 788.979C644.969 781.512 647.016 777.051 650.154 768.985C653.62 760.076 655.146 754.871 657.109 745.515C660.668 728.541 661.445 718.438 659.716 701.182C658.255 686.598 656.552 678.246 651.024 664.672C645.336 650.707 640.684 643.223 631.03 631.639C621.952 620.745 615.639 615.518 604.083 607.3C593.307 599.637 586.594 596.189 574.527 590.783C563.357 585.779 556.769 583.615 544.972 580.352C533.614 577.21 527.063 576.06 515.416 574.267C506.635 572.915 492.815 571.659 492.815 571.659H228.555Z" fill="white"/>
<path d="M507.349 1394C510.254 1386.18 511.89 1373.13 511.89 1373.13V1145.38V1012.98L544.845 1060.31V1145.82V1372.26C544.845 1372.26 544.949 1382.93 547.251 1390.83C548.995 1396.82 551.745 1400.11 555.213 1405.3C559.427 1411.6 567.148 1415.96 573.868 1419.47C579.826 1422.58 602.344 1425.29 602.344 1425.29V1433.11H457.029V1425.29C457.029 1425.29 477.848 1424.31 484.643 1420.94C488.47 1419.05 490.495 1417.65 493.725 1414.86C497.472 1411.62 499.353 1409.45 502.051 1405.3C504.62 1401.34 505.587 1398.74 507.185 1394.44L507.349 1394Z" fill="white"/>
<path d="M751.959 807.017C751.959 807.017 761.759 881.542 772.672 892.455C783.585 903.368 858.11 913.167 858.11 913.167C858.11 913.167 783.585 922.967 772.672 933.88C761.759 944.793 751.959 1019.32 751.959 1019.32C751.959 1019.32 742.16 944.793 731.247 933.88C720.334 922.967 645.809 913.167 645.809 913.167C645.809 913.167 720.334 903.368 731.247 892.455C742.16 881.542 751.959 807.017 751.959 807.017Z" fill="#AE8F45"/>
</svg>
