<svg width="1292" height="2005" viewBox="0 0 1292 2005" fill="none" xmlns="http://www.w3.org/2000/svg">
<path d="M645.808 5C999.717 5 1286.62 291.9 1286.62 645.808V1358.97C1286.62 1712.87 999.717 1999.77 645.808 1999.77C291.9 1999.77 5 1712.87 5 1358.97V645.808C5 291.9 291.9 5 645.808 5Z" fill="white" stroke="#AE8F45" stroke-width="10"/>
<path d="M645.808 56.6777C971.175 56.6777 1234.94 320.44 1234.94 645.808V1358.97C1234.94 1684.33 971.175 1948.1 645.808 1948.1C320.44 1948.1 56.6777 1684.33 56.6777 1358.97V645.808C56.6777 320.44 320.44 56.6777 645.808 56.6777Z" fill="white" stroke="#AE8F45" stroke-width="10"/>
<path fill-rule="evenodd" clip-rule="evenodd" d="M228.557 571.659V578.613C228.557 578.613 246.883 578.372 257.243 582.96C264.821 586.316 269.369 588.725 274.628 595.13C278.964 600.41 280.244 604.311 282.452 610.777C285.337 619.228 285.929 633.378 285.929 633.378L285.06 1114.09C285.06 1114.09 283.854 1126.23 280.713 1133.21C277.233 1140.95 274.289 1145.28 267.674 1150.6C261.519 1155.54 256.991 1157.05 249.419 1159.29C241.546 1161.62 228.557 1161.9 228.557 1161.9V1168.85L411.105 1167.98V1161.9C411.105 1161.9 397.036 1161.77 388.504 1159.29C380.192 1156.88 375.081 1155.36 368.51 1149.73C362.219 1144.33 359.633 1139.95 356.34 1132.34C352.902 1124.4 351.994 1110.61 351.994 1110.61V582.96H358.079H465C479.403 585.234 487.706 586.086 501.51 590.783C513.159 594.748 519.64 597.498 530.196 603.822C537.711 608.325 548.451 616.862 548.451 616.862C548.451 616.862 562.96 630.14 570.183 640.332C576.245 648.887 579.118 654.154 583.222 663.803C588.058 675.174 589.924 682.032 591.915 694.227C593.504 703.967 593.653 719.436 593.653 719.436C593.653 719.436 592.422 741.406 589.307 755.077C586.611 766.905 584.72 773.568 579.745 784.632C575.755 793.503 573.116 798.369 567.575 806.364C560.589 816.443 555.9 821.712 546.712 829.835C541.269 834.647 538.019 837.166 531.935 841.135C523.923 846.362 510.203 852.436 510.203 852.436C510.203 852.436 496.605 857.336 487.601 859.39C478.895 861.377 473.862 861.768 465 862.867C430.635 867.13 376.334 863.736 376.334 863.736V874.168C376.334 874.168 400.398 873.219 415.451 875.906C426.56 877.89 443.268 883.73 443.268 883.73C443.268 883.73 459.828 892.274 469.347 899.377C479.358 906.847 484.393 911.885 492.817 921.109C501.471 930.584 505.147 936.893 512.81 947.187C542.946 987.668 584.091 1054.98 584.091 1054.98L735.345 1291.42L949.188 917.632V1373.13C949.188 1373.13 947.25 1386.26 943.972 1394C942.015 1398.61 940.864 1401.26 937.887 1405.3C934.751 1409.55 932.531 1411.66 928.325 1414.86C924.569 1417.71 922.215 1419.06 917.894 1420.94C909.963 1424.41 896.162 1425.29 896.162 1425.29V1433.11H1063.06V1425.29C1063.06 1425.29 1050.88 1424.19 1043.94 1420.94C1036.5 1417.46 1032.34 1414.49 1027.42 1407.9C1023.61 1402.79 1022.48 1399.18 1020.47 1393.13C1017.87 1385.29 1016.99 1372.26 1016.99 1372.26V919.37C1016.99 919.37 1017.68 909.095 1019.6 902.854C1021.83 895.599 1023.32 891.208 1028.29 885.468C1033.41 879.559 1037.48 876.896 1044.81 874.168C1049.99 872.239 1058.72 871.56 1058.72 871.56V864.606L963.965 863.736L774.463 1196.67L764.901 1213.19L762.293 1214.06L620.601 994.128C620.601 994.128 595.194 949.777 573.66 925.455C568.406 919.521 565.589 916.037 559.751 910.677C551.349 902.963 546.103 899.092 536.281 893.292C528.175 888.505 523.303 886.323 514.549 882.861C503.361 878.435 484.994 874.168 484.994 874.168C484.994 874.168 520.657 869.299 542.366 861.998C558.506 856.57 567.592 853.102 582.353 844.612C594.599 837.569 601.407 833.201 611.908 823.75C618.869 817.485 622.531 813.642 628.424 806.364C633.64 799.923 636.403 796.128 640.594 788.979C644.971 781.512 647.018 777.051 650.156 768.985C653.622 760.076 655.148 754.871 657.11 745.515C660.67 728.541 661.447 718.438 659.718 701.182C658.257 686.598 656.554 678.246 651.026 664.672C645.338 650.707 640.686 643.223 631.032 631.639C621.954 620.745 615.641 615.518 604.085 607.3C593.309 599.637 586.596 596.189 574.529 590.783C563.359 585.779 556.771 583.615 544.974 580.352C533.616 577.21 527.065 576.06 515.418 574.267C506.637 572.915 492.817 571.659 492.817 571.659H228.557Z" fill="black"/>
<path d="M507.351 1394C510.255 1386.18 511.892 1373.13 511.892 1373.13V1145.38V1012.98L544.847 1060.31V1145.82V1372.26C544.847 1372.26 544.951 1382.93 547.253 1390.83C548.997 1396.82 551.747 1400.11 555.215 1405.3C559.429 1411.6 567.15 1415.96 573.87 1419.47C579.828 1422.58 602.346 1425.29 602.346 1425.29V1433.11H457.031V1425.29C457.031 1425.29 477.85 1424.31 484.645 1420.94C488.472 1419.05 490.497 1417.65 493.727 1414.86C497.474 1411.62 499.355 1409.45 502.053 1405.3C504.622 1401.34 505.589 1398.74 507.187 1394.44L507.351 1394Z" fill="black"/>
<path d="M751.961 807.017C751.961 807.017 761.761 881.542 772.674 892.455C783.587 903.368 858.112 913.167 858.112 913.167C858.112 913.167 783.587 922.967 772.674 933.88C761.761 944.793 751.961 1019.32 751.961 1019.32C751.961 1019.32 742.162 944.793 731.249 933.88C720.336 922.967 645.811 913.167 645.811 913.167C645.811 913.167 720.336 903.368 731.249 892.455C742.162 881.542 751.961 807.017 751.961 807.017Z" fill="#AE8F45"/>
</svg>
