<svg width="972" height="240" viewBox="0 0 972 240" fill="none" xmlns="http://www.w3.org/2000/svg">
<path d="M194.308 120C194.308 173.657 150.81 217.154 97.1538 217.154C43.4972 217.154 0 173.657 0 120C0 66.3434 43.4972 22.8462 97.1538 22.8462C150.81 22.8462 194.308 66.3434 194.308 120Z" fill="white"/>
<path d="M192.221 120C192.221 67.4961 149.658 24.9328 97.1541 24.9326C44.6498 24.9326 2.08643 67.496 2.08643 120C2.08657 172.504 44.6499 215.067 97.1541 215.067V217.154L96.5255 217.152C43.3674 216.815 0.338702 173.786 0.00203753 120.628L0 120C0 66.3437 43.4975 22.8462 97.1541 22.8462L97.7821 22.8482C151.15 23.1862 194.308 66.5533 194.308 120L194.306 120.628C193.968 173.996 150.601 217.154 97.1541 217.154V215.067C149.658 215.067 192.221 172.504 192.221 120Z" fill="#AE8F45"/>
<path d="M183.973 120C183.973 167.947 145.103 206.817 97.1553 206.817C49.2074 206.817 10.3379 167.947 10.3379 120C10.3379 72.0516 49.2074 33.1821 97.1553 33.1821C145.103 33.1821 183.973 72.0516 183.973 120Z" fill="white"/>
<path d="M181.886 120C181.886 73.2043 143.951 35.2687 97.1556 35.2686C50.3599 35.2686 12.4243 73.2042 12.4243 120C12.4245 166.795 50.36 204.731 97.1556 204.731V206.817L96.0334 206.81C48.9759 206.214 10.941 168.179 10.345 121.121L10.3379 120C10.3379 72.0519 49.2076 33.1821 97.1556 33.1821L98.2772 33.1893C145.708 33.7899 183.973 72.4264 183.973 120L183.966 121.121C183.365 168.552 144.729 206.817 97.1556 206.817V204.731C143.951 204.73 181.886 166.795 181.886 120Z" fill="#AE8F45"/>
<path d="M97.1543 64.6304C97.1543 64.6304 102.266 103.503 107.958 109.196C113.65 114.888 152.523 120 152.523 120C152.523 120 113.65 125.111 107.958 130.803C102.266 136.496 97.1543 175.369 97.1543 175.369C97.1543 175.369 92.043 136.496 86.3506 130.803C80.6582 125.111 41.7852 120 41.7852 120C41.7852 120 80.6582 114.888 86.3506 109.196C92.043 103.503 97.1543 64.6304 97.1543 64.6304Z" fill="#AE8F45"/>
<path d="M239.269 147.968V78.2903C239.269 74.8495 239 72.2688 238.463 70.5484C237.925 68.7204 236.85 67.4301 235.237 66.6774C233.624 65.8172 231.204 65.2258 227.979 64.9032L224.269 64.4194V62.8065C225.882 62.8065 227.764 62.8602 229.914 62.9677C232.065 63.0753 234.484 63.1828 237.172 63.2903C239.86 63.2903 242.71 63.2903 245.721 63.2903H247.333C250.989 63.2903 254.43 63.2903 257.656 63.2903C260.989 63.1828 263.893 63.0753 266.366 62.9677C268.946 62.8602 270.936 62.8065 272.333 62.8065C285.022 62.8065 295.022 65.3333 302.333 70.3871C309.645 75.4409 313.301 82.3226 313.301 91.0323C313.301 97.1613 311.419 102.538 307.656 107.161C304 111.677 298.839 115.226 292.172 117.806C285.506 120.387 277.764 121.677 268.946 121.677H247.495V120.387H267.495C277.28 120.387 284.484 118.183 289.108 113.774C293.839 109.258 296.204 102.376 296.204 93.129C296.204 83.6667 293.839 76.6237 289.108 72C284.484 67.2688 277.441 64.9032 267.979 64.9032H255.559V147.968H239.269ZM314.753 179.258C309.592 179.258 305.452 177.86 302.333 175.065C299.323 172.161 297.118 167.591 295.721 161.355L291.043 140.71C289.86 135.656 288.463 131.785 286.85 129.097C285.344 126.409 283.194 124.581 280.398 123.613C277.602 122.538 273.731 122 268.785 122H249.753V120.871H267.656C277.226 120.871 284.699 121.516 290.075 122.806C295.452 124.097 299.484 126.409 302.172 129.742C304.968 133.075 307.118 137.968 308.624 144.419L312.656 160.548C313.839 165.602 315.183 169.097 316.688 171.032C318.194 172.86 320.344 173.72 323.14 173.613C324.753 173.613 326.151 173.183 327.333 172.323C328.624 171.462 330.129 170.011 331.85 167.968L332.817 169.258C330.129 172.806 327.387 175.387 324.592 177C321.903 178.505 318.624 179.258 314.753 179.258ZM245.721 176.516C242.71 176.516 239.86 176.57 237.172 176.677C234.484 176.677 232.065 176.731 229.914 176.839C227.764 176.839 225.882 176.892 224.269 177V175.387L227.979 174.903C231.204 174.473 233.624 173.882 235.237 173.129C236.85 172.376 237.925 171.14 238.463 169.419C239 167.591 239.269 164.957 239.269 161.516V147.968H255.559V161.516C255.559 166.57 256.204 169.957 257.495 171.677C258.785 173.29 261.688 174.366 266.204 174.903L269.269 175.387V177C267.764 176.892 265.989 176.839 263.946 176.839C262.011 176.731 259.753 176.677 257.172 176.677C254.699 176.57 251.957 176.516 248.946 176.516H247.495H245.721ZM349.829 135.71V108.29C349.829 103.989 348.969 100.978 347.249 99.2581C345.636 97.5376 342.571 96.4624 338.055 96.0323L335.636 95.7097V94.0968C338.109 94.2043 340.098 94.3118 341.604 94.4194C343.109 94.4194 344.614 94.4194 346.12 94.4194C349.883 94.4194 353.378 94.2581 356.604 93.9355C359.829 93.5054 362.733 92.914 365.313 92.1613V94.0968V135.71H349.829ZM357.571 176.516C353.7 176.516 350.045 176.57 346.604 176.677C343.163 176.785 339.507 176.892 335.636 177V175.387L338.7 175.065C342.786 174.742 345.636 173.72 347.249 172C348.969 170.28 349.829 167.376 349.829 163.29V135.71H365.313V163.29C365.313 167.376 366.12 170.28 367.733 172C369.453 173.72 372.356 174.742 376.442 175.065L379.507 175.387V177C375.636 176.892 371.98 176.785 368.539 176.677C365.098 176.57 361.442 176.516 357.571 176.516ZM357.41 73.6129C354.829 73.6129 352.571 72.6989 350.636 70.871C348.7 68.9355 347.733 66.6237 347.733 63.9355C347.733 61.2473 348.7 58.9893 350.636 57.1613C352.571 55.3333 354.829 54.4194 357.41 54.4194C360.098 54.4194 362.41 55.3333 364.346 57.1613C366.281 58.9893 367.249 61.2473 367.249 63.9355C367.249 66.6237 366.281 68.9355 364.346 70.871C362.41 72.6989 360.098 73.6129 357.41 73.6129ZM409.673 176.516C405.802 176.516 402.146 176.57 398.705 176.677C395.264 176.785 391.608 176.892 387.737 177V175.387L390.802 175.065C394.888 174.742 397.737 173.72 399.35 172C401.071 170.28 401.931 167.376 401.931 163.29V135.71H417.415V163.29C417.415 167.376 418.221 170.333 419.834 172.161C421.447 173.882 424.243 174.849 428.221 175.065L430.479 175.387V177C426.716 176.892 423.168 176.785 419.834 176.677C416.608 176.57 413.221 176.516 409.673 176.516ZM401.931 135.71V108.29C401.931 103.989 401.071 100.978 399.35 99.2581C397.737 97.5376 394.673 96.4624 390.157 96.0323L387.737 95.7097V94.0968C390.211 94.2043 392.2 94.3118 393.705 94.4194C395.211 94.4194 396.716 94.4194 398.221 94.4194C401.985 94.4194 405.479 94.2581 408.705 93.9355C411.931 93.5054 414.834 92.914 417.415 92.1613V94.0968V135.71H401.931ZM454.996 135.71V119.742C454.996 111.785 453.598 105.817 450.802 101.839C448.114 97.7527 443.92 95.7097 438.221 95.7097C432.845 95.7097 428.06 97.4839 423.866 101.032C419.673 104.473 416.125 109.742 413.221 116.839L412.899 115.871C416.017 107.699 420.157 101.624 425.318 97.6452C430.587 93.6667 436.985 91.6774 444.512 91.6774C452.899 91.6774 459.35 94.4194 463.866 99.9032C468.383 105.28 470.641 113.022 470.641 123.129V135.71H454.996ZM462.899 176.516C459.243 176.516 455.802 176.57 452.576 176.677C449.35 176.785 445.91 176.892 442.254 177V175.387L444.35 175.226C448.221 174.903 450.963 173.882 452.576 172.161C454.189 170.333 454.996 167.376 454.996 163.29V135.71H470.641V163.29C470.641 167.376 471.447 170.28 473.06 172C474.78 173.72 477.684 174.742 481.77 175.065L484.834 175.387V177C480.856 176.892 477.146 176.785 473.705 176.677C470.264 176.57 466.662 176.516 462.899 176.516ZM526.928 215.548C516.498 215.548 508.165 213.667 501.928 209.903C495.692 206.14 492.573 201.194 492.573 195.065C492.573 190.011 494.509 185.602 498.38 181.839C502.358 178.075 508.111 174.903 515.638 172.323L516.767 173.129C513.649 174.742 511.176 177.323 509.348 180.871C507.627 184.419 506.767 188.398 506.767 192.806C506.767 199.366 508.81 204.473 512.896 208.129C517.09 211.785 522.896 213.613 530.315 213.613C536.014 213.613 541.068 212.538 545.477 210.387C549.993 208.237 553.541 205.28 556.122 201.516C558.702 197.86 559.993 193.72 559.993 189.097C559.993 184.366 558.487 180.817 555.477 178.452C552.573 176.194 548.165 175.065 542.251 175.065H526.606C520.262 175.065 515.262 173.882 511.606 171.516C507.95 169.043 506.122 165.763 506.122 161.677C506.122 158.129 507.52 154.849 510.315 151.839C513.111 148.72 517.197 145.763 522.573 142.968L524.186 143.29C521.283 145.011 519.186 146.731 517.896 148.452C516.713 150.065 516.122 151.839 516.122 153.774C516.122 156.032 516.982 157.753 518.702 158.935C520.53 160.118 523.057 160.71 526.283 160.71H546.283C554.885 160.71 561.391 162.484 565.799 166.032C570.315 169.581 572.573 174.796 572.573 181.677C572.573 188.237 570.638 194.043 566.767 199.097C562.896 204.258 557.52 208.29 550.638 211.194C543.864 214.097 535.96 215.548 526.928 215.548ZM528.38 143.613C519.025 143.613 511.659 141.355 506.283 136.839C500.907 132.215 498.219 125.817 498.219 117.645C498.219 109.473 500.907 103.129 506.283 98.6129C511.659 93.9893 518.971 91.6774 528.219 91.6774C537.681 91.6774 545.047 93.9893 550.315 98.6129C555.692 103.129 558.38 109.473 558.38 117.645C558.38 125.71 555.692 132.054 550.315 136.677C545.047 141.301 537.735 143.613 528.38 143.613ZM528.38 142C533.111 142 536.606 140.011 538.864 136.032C541.229 132.054 542.412 125.925 542.412 117.645C542.412 109.366 541.229 103.237 538.864 99.2581C536.606 95.2796 533.111 93.2903 528.38 93.2903C523.541 93.2903 519.939 95.2796 517.573 99.2581C515.315 103.237 514.186 109.366 514.186 117.645C514.186 125.925 515.315 132.054 517.573 136.032C519.939 140.011 523.541 142 528.38 142ZM573.864 110.065C571.821 110.065 570.262 109.312 569.186 107.806C568.219 106.301 567.466 104.581 566.928 102.645C566.391 100.71 565.853 98.9892 565.315 97.4839C564.778 95.9785 563.917 95.2258 562.735 95.2258C562.09 95.2258 560.96 95.7097 559.348 96.6774C557.842 97.6452 556.283 98.9355 554.67 100.548C553.057 102.161 551.767 104.043 550.799 106.194L549.993 105.065C551.821 101.301 554.67 98.129 558.541 95.5484C562.52 92.9677 566.444 91.6774 570.315 91.6774C573.434 91.6774 575.853 92.5914 577.573 94.4194C579.401 96.1398 580.315 98.5591 580.315 101.677C580.315 104.258 579.724 106.301 578.541 107.806C577.466 109.312 575.907 110.065 573.864 110.065ZM674.373 179.097L628.889 70.0645H628.082V161.516C628.082 166.462 628.781 169.796 630.179 171.516C631.577 173.237 634.803 174.312 639.856 174.742L644.05 175.387V177C642.114 176.892 639.641 176.785 636.631 176.677C633.727 176.57 630.609 176.516 627.276 176.516C625.125 176.516 623.028 176.57 620.985 176.677C619.05 176.677 617.276 176.731 615.663 176.839C614.05 176.839 612.598 176.892 611.308 177V175.387L615.179 174.903C618.297 174.473 620.663 173.882 622.276 173.129C623.889 172.376 624.964 171.14 625.502 169.419C626.039 167.591 626.308 164.957 626.308 161.516V78.2903C626.308 74.8495 626.039 72.2688 625.502 70.5484C624.964 68.7204 623.889 67.4301 622.276 66.6774C620.663 65.8172 618.244 65.2258 615.018 64.9032L611.308 64.4194V62.8065C612.921 62.8065 614.803 62.8602 616.953 62.9677C619.104 63.0753 621.523 63.1828 624.211 63.2903C626.899 63.2903 629.749 63.2903 632.76 63.2903H635.018C636.523 63.2903 637.975 63.2366 639.373 63.129C640.77 63.0215 641.899 62.914 642.76 62.8065L682.76 158.774L681.147 159.419L715.34 62.8065C717.598 63.0215 719.48 63.1828 720.985 63.2903C722.491 63.2903 723.942 63.2903 725.34 63.2903H726.953C730.071 63.2903 732.921 63.2903 735.502 63.2903C738.19 63.1828 740.609 63.0753 742.76 62.9677C745.018 62.8602 746.899 62.8065 748.405 62.8065V64.4194L744.695 64.9032C741.577 65.2258 739.157 65.8172 737.437 66.6774C735.824 67.4301 734.749 68.7204 734.211 70.5484C733.674 72.2688 733.405 74.8495 733.405 78.2903V161.516C733.405 164.957 733.674 167.591 734.211 169.419C734.749 171.14 735.824 172.376 737.437 173.129C739.157 173.882 741.577 174.473 744.695 174.903L748.405 175.387V177C746.899 176.892 745.018 176.839 742.76 176.839C740.609 176.731 738.19 176.677 735.502 176.677C732.921 176.57 730.071 176.516 726.953 176.516H725.34H723.727C720.824 176.516 718.082 176.57 715.502 176.677C712.921 176.677 710.555 176.731 708.405 176.839C706.362 176.839 704.641 176.892 703.244 177V175.387L706.308 174.903C709.319 174.473 711.577 173.882 713.082 173.129C714.695 172.376 715.77 171.14 716.308 169.419C716.846 167.591 717.114 164.957 717.114 161.516V65.3871H716.308L675.985 179.097H674.373ZM773.197 135.71V108.29C773.197 103.989 772.336 100.978 770.616 99.2581C769.003 97.5376 765.939 96.4624 761.422 96.0323L759.003 95.7097V94.0968C761.476 94.2043 763.465 94.3118 764.971 94.4194C766.476 94.4194 767.982 94.4194 769.487 94.4194C773.25 94.4194 776.745 94.2581 779.971 93.9355C783.197 93.5054 786.1 92.914 788.681 92.1613V94.0968V135.71H773.197ZM780.939 176.516C777.068 176.516 773.412 176.57 769.971 176.677C766.53 176.785 762.874 176.892 759.003 177V175.387L762.068 175.065C766.154 174.742 769.003 173.72 770.616 172C772.336 170.28 773.197 167.376 773.197 163.29V135.71H788.681V163.29C788.681 167.376 789.487 170.28 791.1 172C792.82 173.72 795.724 174.742 799.81 175.065L802.874 175.387V177C799.003 176.892 795.347 176.785 791.906 176.677C788.465 176.57 784.81 176.516 780.939 176.516ZM780.777 73.6129C778.197 73.6129 775.939 72.6989 774.003 70.871C772.068 68.9355 771.1 66.6237 771.1 63.9355C771.1 61.2473 772.068 58.9893 774.003 57.1613C775.939 55.3333 778.197 54.4194 780.777 54.4194C783.465 54.4194 785.777 55.3333 787.713 57.1613C789.648 58.9893 790.616 61.2473 790.616 63.9355C790.616 66.6237 789.648 68.9355 787.713 70.871C785.777 72.6989 783.465 73.6129 780.777 73.6129ZM833.04 176.516C829.169 176.516 825.513 176.57 822.072 176.677C818.632 176.785 814.976 176.892 811.105 177V175.387L814.169 175.065C818.255 174.742 821.105 173.72 822.718 172C824.438 170.28 825.298 167.376 825.298 163.29V135.71H840.782V163.29C840.782 167.376 841.589 170.333 843.201 172.161C844.814 173.882 847.61 174.849 851.589 175.065L853.847 175.387V177C850.083 176.892 846.535 176.785 843.201 176.677C839.976 176.57 836.589 176.516 833.04 176.516ZM825.298 135.71V108.29C825.298 103.989 824.438 100.978 822.718 99.2581C821.105 97.5376 818.04 96.4624 813.524 96.0323L811.105 95.7097V94.0968C813.578 94.2043 815.567 94.3118 817.072 94.4194C818.578 94.4194 820.083 94.4194 821.589 94.4194C825.352 94.4194 828.847 94.2581 832.072 93.9355C835.298 93.5054 838.201 92.914 840.782 92.1613V94.0968V135.71H825.298ZM878.363 135.71V119.742C878.363 111.785 876.965 105.817 874.169 101.839C871.481 97.7527 867.287 95.7097 861.589 95.7097C856.212 95.7097 851.427 97.4839 847.234 101.032C843.04 104.473 839.492 109.742 836.589 116.839L836.266 115.871C839.384 107.699 843.524 101.624 848.685 97.6452C853.954 93.6667 860.352 91.6774 867.879 91.6774C876.266 91.6774 882.718 94.4194 887.234 99.9032C891.75 105.28 894.008 113.022 894.008 123.129V135.71H878.363ZM886.266 176.516C882.61 176.516 879.169 176.57 875.943 176.677C872.718 176.785 869.277 176.892 865.621 177V175.387L867.718 175.226C871.589 174.903 874.33 173.882 875.943 172.161C877.556 170.333 878.363 167.376 878.363 163.29V135.71H894.008V163.29C894.008 167.376 894.814 170.28 896.427 172C898.148 173.72 901.051 174.742 905.137 175.065L908.201 175.387V177C904.223 176.892 900.513 176.785 897.072 176.677C893.632 176.57 890.029 176.516 886.266 176.516ZM948.554 179.258C940.705 179.258 934.844 176.946 930.973 172.323C927.21 167.699 925.328 160.441 925.328 150.548V135.71H940.973V159.742C940.973 165.011 941.941 168.935 943.877 171.516C945.92 174.097 948.984 175.387 953.07 175.387C957.264 175.387 960.758 173.828 963.554 170.71C966.457 167.484 968.554 162.86 969.844 156.839L971.296 157.323C969.683 164.742 967.049 170.28 963.393 173.935C959.737 177.484 954.791 179.258 948.554 179.258ZM925.328 135.71V69.4194C928.554 69.3118 931.457 69.0968 934.038 68.7742C936.619 68.3441 938.93 67.8064 940.973 67.1613V135.71H925.328ZM908.393 96.0323V94.2581H966.619V96.0323H908.393Z" fill="black"/>
</svg>
